<svg xmlns="http://www.w3.org/2000/svg" viewBox="0 0 1024 1024" width="1024" height="1024">
  <defs><linearGradient id="bg" x1="0" y1="0" x2="1" y2="1" gradientTransform="rotate(0,0.5,0.5)"><stop offset="0" stop-color="#ffffff"/><stop offset="0.52" stop-color="#ff38b6"/><stop offset="1" stop-color="#ff0000"/></linearGradient><radialGradient id="g0" cx="0" cy="0.39" r="0.518"><stop offset="0" stop-color="rgb(251,255,0)" stop-opacity="1"/><stop offset="1" stop-color="rgb(251,255,0)" stop-opacity="0"/></radialGradient><radialGradient id="g1" cx="0.84" cy="0.86" r="0.488"><stop offset="0" stop-color="rgb(136,105,247)" stop-opacity="1"/><stop offset="1" stop-color="rgb(136,105,247)" stop-opacity="0"/></radialGradient><clipPath id="sq"><rect x="100" y="100" width="824" height="824" rx="180"/></clipPath><filter id="fx0" x="-40%" y="-40%" width="180%" height="180%" color-interpolation-filters="sRGB"><feGaussianBlur in="SourceAlpha" stdDeviation="40" result="glb"/><feFlood flood-color="#CFFFEE" flood-opacity="1" result="glc"/><feComposite in="glc" in2="glb" operator="in" result="glow"/><feComponentTransfer in="SourceGraphic" result="body"><feFuncA type="linear" slope="1"/></feComponentTransfer><feOffset in="SourceAlpha" dx="-8" dy="-8" result="lo1"/><feComposite in="SourceAlpha" in2="lo1" operator="out" result="lo2"/><feGaussianBlur in="lo2" stdDeviation="11.5" result="lo3"/><feFlood flood-color="#0A4A3E" flood-opacity="0.82" result="lo4"/><feComposite in="lo4" in2="lo3" operator="in" result="lowlight"/><feOffset in="SourceAlpha" dx="8" dy="8" result="hi1"/><feComposite in="SourceAlpha" in2="hi1" operator="out" result="hi2"/><feGaussianBlur in="hi2" stdDeviation="11.5" result="hi3"/><feFlood flood-color="#FFFFFF" flood-opacity="1" result="hi4"/><feComposite in="hi4" in2="hi3" operator="in" result="highlight"/><feMerge><feMergeNode in="glow"/><feMergeNode in="body"/><feMergeNode in="lowlight"/><feMergeNode in="highlight"/></feMerge></filter></defs>
  <g clip-path="url(#sq)">
    <rect x="100" y="100" width="824" height="824" fill="url(#bg)"/>
    <rect x="100" y="100" width="824" height="824" fill="url(#g0)"/>
    <rect x="100" y="100" width="824" height="824" fill="url(#g1)"/>
  </g>
  <g filter="url(#fx0)"><path d="M -93.33 -93.33 L 186.67 -93.33 A 93.33 93.33 0 1 0 93.33 -186.67 L 93.33 186.67 A 93.33 93.33 0 1 0 186.67 93.33 L -186.67 93.33 A 93.33 93.33 0 1 0 -93.33 186.67 L -93.33 -186.67 A 93.33 93.33 0 1 0 -186.67 -93.33 Z" fill="none" stroke="#FFFFFF" stroke-width="85.56" stroke-linecap="round" stroke-linejoin="round" transform="translate(512,512)"/></g>
</svg>